<svg xmlns="http://www.w3.org/2000/svg" viewBox="0 0 1979.01 1979.01">
  <circle cx="989.5" cy="989.5" r="989.5" fill="#303030"/>
  <circle cx="989.5" cy="989.5" r="860.87" fill="#94df03"/>
  <path d="M955.51 841.51c-5.42-46.84-29.94-102.23-42-148-19.55-89.4-49.61-149.11-43-223 6.85-34.26 32.94-113.18 73-141 38.62-23.34 131.4-38.27 182 12 42.72 64 52.2 70.85 134 50 77.67-16.73 152.63 40.41 186 99 15.42 35.21 15.57 60.72 11 94-33.92 81.88-159.24 179.75-185 204-46.31 31.61-76.2 38.47-112.19 62.65-3.39 2.28-28.74 26.15-42.82 35.34-6.26 4.78-19.09 13.85-17 26 2.27 9.58 15.82 16.65 23.39 11.53 22.09-15 144.44-53 144.44-53 131.18-40.63 197.18-60.93 219.18-59.52 33 2 105.21 6.54 146.08 62.22 39 53.1 38.4 137.61 1.68 182.39-20.1 24.53-42.9 27.2-52.6 56-9.58 28.46 6.6 43.77 12.79 81.33 13.61 82.51-38.29 167.29-84.78 192.89-18.79 10.35-39.63 15.17-39.63 15.17s-26 6-53.27 2.86-53.19-17.12-130.43-86c-50.38-44.94-75.57-67.41-86.88-83.15-25.89-36-33.52-63-70.89-107.17-15.14-17.92-31.86-39.6-38.45-40.06s-33.52 17.44-29.59 34.55c71.44 177.34 171.4 295.91 200 521-12.51 22.25-56.23 14.76-78 19-27.66 4.16-47.9 29-73 15-39.86-119.51-35.34-424.35-104-556-13.88 0-20.18-1.32-25 0-11 3 3.14 83.57 9 142.71 10.53 106.32 16.24 163.92-7.58 227-11.73 31-37.26 98.62-102.49 121.27-62.21 21.61-142.81-3.83-174.79-52.11-17.52-26.43-13.36-49-38.07-66.78-24.38-17.53-43.77-6.58-81.49-11.72-82.86-11.3-148.6-85.86-159.37-137.83-4.36-21-2.82-42.34-2.82-42.34s1.91-26.61 13-51.76c11.53-26.24 33.71-46.87 120.62-99.3 59-35.57 88.43-53.36 105-58.53 49.33-15.37 94-17.59 126-33.09 1.6-.77 19.55-9.75 33.07-16.3 12.48-6 21.58-16.59 29.14-28.21 9.75-15 7.28-21.28-6.65-21.81-49.47 13.51-102.28 8.76-152.93 16.8-104 16.51-162 25.72-227 5.31-31.59-9.91-100.57-31.57-126.9-95.43-25.1-60.89-4.28-142.8 42.1-177.47 25.41-19 48.18-16.12 64.52-41.8 16.12-25.33 4.08-44.07 7.08-82 6.53-83.44 77.25-153.31 128.53-167.01 20.72-5.54 42.11-5.22 42.11-5.22s26.67.4 52.41 10c25.57 9.59 47.48 29.37 105.98 114.79 40.71 59.48 61.06 89.21 64.4 101.56 0 0 23.45 86.62 43.12 121 18.79 32.89 17.42 39.17 27.72 48.1 6.13 9.82 34 15.92 41.25 2.09" fill="#303030"/>
</svg>
